HIERARCHY
ROOT Hips
{
	OFFSET 0.00000 0.00000 0.00000
	CHANNELS 6 Xposition Yposition Zposition Zrotation Yrotation Xrotation 
	JOINT LHipJoint
	{
		OFFSET 0 0 0
		CHANNELS 3 Zrotation Yrotation Xrotation
		JOINT LeftUpLeg
		{
			OFFSET 1.64577 -1.42384 0.94276
			CHANNELS 3 Zrotation Yrotation Xrotation
			JOINT LeftLeg
			{
				OFFSET 2.11538 -5.81197 0.00000
				CHANNELS 3 Zrotation Yrotation Xrotation
				JOINT LeftFoot
				{
					OFFSET 2.36541 -6.49893 0.00000
					CHANNELS 3 Zrotation Yrotation Xrotation
					JOINT LeftToeBase
					{
						OFFSET 0.17759 -0.48793 1.73865
						CHANNELS 3 Zrotation Yrotation Xrotation
						End Site
						{
							OFFSET 0.00000 -0.00000 0.91205
						}
					}
				}
			}
		}
	}
	JOINT RHipJoint
	{
		OFFSET 0 0 0
		CHANNELS 3 Zrotation Yrotation Xrotation
		JOINT RightUpLeg
		{
			OFFSET -1.43750 -1.42384 0.94276
			CHANNELS 3 Zrotation Yrotation Xrotation
			JOINT RightLeg
			{
				OFFSET -2.10480 -5.78291 0.00000
				CHANNELS 3 Zrotation Yrotation Xrotation
				JOINT RightFoot
				{
					OFFSET -2.34880 -6.45329 0.00000
					CHANNELS 3 Zrotation Yrotation Xrotation
					JOINT RightToeBase
					{
						OFFSET -0.22842 -0.62757 1.80469
						CHANNELS 3 Zrotation Yrotation Xrotation
						End Site
						{
							OFFSET -0.00000 -0.00000 0.95886
						}
					}
				}
			}
		}
	}
	JOINT LowerBack
	{
		OFFSET 0 0 0
		CHANNELS 3 Zrotation Yrotation Xrotation
		JOINT Spine
		{
			OFFSET 0.06217 1.93758 -0.49272
			CHANNELS 3 Zrotation Yrotation Xrotation
			JOINT Spine1
			{
				OFFSET -0.03114 2.03621 -0.05830
				CHANNELS 3 Zrotation Yrotation Xrotation
				JOINT Neck
				{
					OFFSET 0 0 0
					CHANNELS 3 Zrotation Yrotation Xrotation
					JOINT Neck1
					{
						OFFSET 0.04421 1.41010 0.26562
						CHANNELS 3 Zrotation Yrotation Xrotation
						JOINT Head
						{
							OFFSET -0.13407 1.43847 0.06181
							CHANNELS 3 Zrotation Yrotation Xrotation
							End Site
							{
								OFFSET -0.04980 1.45844 -0.00689
							}
						}
					}
				}
				JOINT LeftShoulder
				{
					OFFSET 0 0 0
					CHANNELS 3 Zrotation Yrotation Xrotation
					JOINT LeftArm
					{
						OFFSET 2.18382 1.47753 -0.35694
						CHANNELS 3 Zrotation Yrotation Xrotation
						JOINT LeftForeArm
						{
							OFFSET 5.05460 -0.00000 0.00000
							CHANNELS 3 Zrotation Yrotation Xrotation
							JOINT LeftHand
							{
								OFFSET 3.39013 -0.00000 0.00000
								CHANNELS 3 Zrotation Yrotation Xrotation
								JOINT LeftFingerBase
								{
									OFFSET 0 0 0
									CHANNELS 3 Zrotation Yrotation Xrotation
									JOINT LeftHandIndex1
									{
										OFFSET 0.57242 -0.00000 -0.00000
										CHANNELS 3 Zrotation Yrotation Xrotation
										End Site
										{
											OFFSET 0.46150 -0.00000 -0.00000
										}
									}
								}
								JOINT LThumb
								{
									OFFSET 0 0 0
									CHANNELS 3 Zrotation Yrotation Xrotation
									End Site
									{
										OFFSET 0.46855 -0.00000 0.46855
									}
								}
							}
						}
					}
				}
				JOINT RightShoulder
				{
					OFFSET 0 0 0
					CHANNELS 3 Zrotation Yrotation Xrotation
					JOINT RightArm
					{
						OFFSET -2.06033 1.72839 -0.47437
						CHANNELS 3 Zrotation Yrotation Xrotation
						JOINT RightForeArm
						{
							OFFSET -5.07010 -0.00000 0.00000
							CHANNELS 3 Zrotation Yrotation Xrotation
							JOINT RightHand
							{
								OFFSET -3.14957 -0.00000 -0.00000
								CHANNELS 3 Zrotation Yrotation Xrotation
								JOINT RightFingerBase
								{
									OFFSET 0 0 0
									CHANNELS 3 Zrotation Yrotation Xrotation
									JOINT RightHandIndex1
									{
										OFFSET -0.71819 -0.00000 -0.00000
										CHANNELS 3 Zrotation Yrotation Xrotation
										End Site
										{
											OFFSET -0.57902 -0.00000 -0.00000
										}
									}
								}
								JOINT RThumb
								{
									OFFSET 0 0 0
									CHANNELS 3 Zrotation Yrotation Xrotation
									End Site
									{
										OFFSET -0.58786 -0.00000 0.58786
									}
								}
							}
						}
					}
				}
			}
		}
	}
}
MOTION
Frames: 13
Frame Time: .0083333
-3.1001 15.1101 -15.6062 -104.7060 -70.3976 -617.0920 0.0000 0.0000 0.0000 -19.9907 -13.6919 -21.7027 3.9001 12.0263 35.8250 1.0667 4.6802 -21.7278 0.6900 5.3105 14.7964 0.0000 0.0000 0.0000 31.0862 -9.2456 6.8788 -5.0177 -13.4037 40.8992 0.5905 -13.4879 -5.8615 -2.9333 10.5863 -30.8969 9.4445 4.1547 9.3523 2.0122 5.7919 6.7655 -3.5153 3.0492 2.6487 12.7380 7.9112 -6.7985 -14.4307 10.6755 7.7180 -5.8148 4.9379 4.9075 -0.0000 -0.0000 0.0000 -83.4707 51.2475 27.0978 87.1240 -59.9687 -57.5096 -0.0000 0.0000 -24.9847 30.9393 5.7143 3.4156 -7.1250 0.0000 -0.0000 3.5759 36.6140 -0.7387 -0.0000 -0.0000 0.0000 71.3390 -12.6127 50.3733 -133.4000 51.5287 -96.5151 0.0000 -0.0000 -26.9686 -24.6483 18.8501 -8.4329 7.1250 -0.0000 -0.0000 2.2970 -9.4054 1.8923
-3.5991 15.0373 -15.6835 -102.6910 -71.4848 -619.5060 0.0000 0.0000 0.0000 -21.8382 -13.0659 -19.0690 3.5398 11.5214 34.0592 0.9548 4.7507 -20.7614 1.0885 6.6307 18.6258 0.0000 0.0000 0.0000 29.0951 -8.7962 4.7541 -6.5883 -14.9752 47.2994 0.6806 -14.5639 -7.5580 -2.6105 10.0361 -29.0938 8.5191 4.0412 9.4603 1.5448 5.6214 6.6887 -3.5057 2.9429 2.4239 13.0496 8.3289 -6.3246 -14.5288 11.2585 7.5519 -5.8532 5.2491 4.8829 0.0000 -0.0000 0.0000 -84.6626 50.7582 25.2550 86.2739 -59.9475 -56.7737 -0.0000 0.0000 -24.5211 30.1012 5.9861 3.4596 -7.1250 0.0000 -0.0000 2.8641 36.8774 -0.5729 0.0000 -0.0000 0.0000 71.2850 -14.6924 51.3983 -134.7568 50.8871 -97.5727 0.0000 -0.0000 -26.5245 -24.3140 19.7151 -8.6661 7.1250 -0.0000 -0.0000 2.5954 -8.5316 2.1840
-4.0849 14.9370 -15.7560 -100.2660 -72.7246 -622.2190 0.0000 0.0000 0.0000 -23.8059 -12.3947 -16.6682 3.3459 11.2350 33.0765 0.9217 4.1606 -20.0981 1.5987 7.9748 22.6375 0.0000 0.0000 0.0000 27.0745 -7.7018 2.2326 -8.3669 -16.3826 53.8737 0.8287 -16.3571 -10.3784 -2.3414 9.5437 -27.5114 7.4765 3.9075 9.6325 0.9880 5.4167 6.5878 -3.5246 2.8155 2.1357 13.5592 8.7271 -5.7127 -14.7452 11.8125 7.2235 -5.9705 5.5553 4.8040 -0.0000 0.0000 0.0000 -85.3325 49.5467 24.1368 84.9447 -59.9032 -55.6234 -0.0000 0.0000 -24.3495 29.5078 6.3888 3.6035 -7.1250 0.0000 -0.0000 2.3536 37.3019 -0.4462 -0.0000 0.0000 0.0000 71.4558 -16.9335 52.2343 -135.2443 50.6482 -97.9503 0.0000 -0.0000 -26.0288 -24.3516 20.4674 -8.9933 7.1250 -0.0000 -0.0000 2.6457 -7.7212 2.2687
-4.5564 14.8178 -15.8259 -96.7613 -74.3407 -625.9120 0.0000 0.0000 0.0000 -26.1388 -11.8530 -14.4796 3.2933 11.1554 32.8056 0.9819 3.0109 -20.0328 2.1282 9.1282 26.1972 0.0000 0.0000 0.0000 24.8302 -6.0227 -0.6487 -10.2617 -17.5544 60.3595 0.9629 -18.1247 -13.4035 -2.1828 9.2369 -26.5393 6.0732 3.7469 9.8591 0.3109 5.1376 6.5336 -3.4609 2.6421 1.8399 14.1020 9.1251 -5.1818 -14.9700 12.3536 6.8017 -6.0946 5.8544 4.7159 -0.0000 0.0000 0.0000 -85.3334 47.5464 23.9718 83.1157 -59.8202 -54.0417 -0.0000 0.0000 -24.5610 29.2660 6.8234 3.8091 -7.1250 0.0000 -0.0000 2.1375 37.7822 -0.3800 -0.0000 0.0000 0.0000 71.9210 -19.2052 52.6842 -134.6638 50.9321 -97.5005 0.0000 -0.0000 -25.4062 -24.7814 20.9704 -9.3820 7.1250 -0.0000 -0.0000 2.4244 -7.1100 2.1076
-5.0066 14.6924 -15.8923 -91.7969 -76.0375 -630.8960 0.0000 0.0000 0.0000 -28.5127 -11.5062 -12.6777 3.3626 11.2601 33.1622 1.1119 1.5512 -20.5377 2.5460 9.9210 28.7213 0.0000 0.0000 0.0000 22.6832 -3.5923 -3.9679 -12.1688 -18.4611 66.5230 1.0294 -19.3077 -15.7848 -2.1455 9.1628 -26.3061 4.5372 3.5940 10.2308 -0.4177 4.8449 6.4784 -3.3780 2.4555 1.4666 14.6143 9.5048 -4.7725 -15.1736 12.8546 6.2998 -6.2066 6.1303 4.6192 0.0000 -0.0000 0.0000 -84.6332 44.7601 24.8343 80.8609 -59.6820 -52.0938 -0.0000 0.0000 -24.9194 29.3334 7.3168 4.0935 -7.1250 0.0000 -0.0000 2.1827 38.3500 -0.3577 0.0000 -0.0000 0.0000 72.7455 -21.4798 52.5948 -132.8466 51.7809 -96.0811 0.0000 -0.0000 -24.6086 -25.5655 21.2236 -9.8249 7.1250 -0.0000 -0.0000 1.9557 -6.6993 1.7152
-5.4370 14.5710 -15.9531 -84.5934 -77.5099 -638.0050 0.0000 0.0000 0.0000 -30.6997 -11.4119 -11.1004 3.5172 11.4887 33.9462 1.2852 -0.0333 -21.4354 2.7633 10.3017 29.9592 0.0000 0.0000 0.0000 20.8363 -0.5432 -7.6629 -13.9610 -19.1022 72.0854 0.9977 -19.6169 -17.2189 -2.2829 9.4319 -27.1560 3.1427 3.4365 10.7863 -1.1382 4.5335 6.4392 -3.3666 2.2619 1.0343 15.0414 9.8414 -4.4694 -15.3108 13.2787 5.6941 -6.2884 6.3658 4.4903 -0.0000 0.0000 0.0000 -83.4037 41.3020 26.4953 78.5532 -59.4991 -50.1034 -0.0000 0.0000 -24.9829 29.5381 7.9520 4.4824 -7.1250 0.0000 -0.0000 2.3416 39.0909 -0.3411 -0.0000 0.0000 0.0000 73.9640 -23.7176 51.8962 -129.6754 53.1256 -93.5664 0.0000 -0.0000 -23.7278 -26.7599 21.1440 -10.3090 7.1250 -0.0000 -0.0000 1.1921 -6.5647 1.0482
-5.8525 14.4605 -16.0081 -75.2390 -78.6025 -647.1480 0.0000 0.0000 0.0000 -32.6355 -11.4350 -9.6892 3.7107 11.7652 34.9064 1.4692 -1.6485 -22.4467 2.7633 10.3017 29.9593 0.0000 0.0000 0.0000 19.2394 3.0209 -11.7156 -15.5331 -19.5147 76.8374 0.8663 -19.0151 -17.7803 -2.4917 9.8228 -28.4047 1.9155 3.3114 11.4319 -1.8345 4.2504 6.4125 -3.4231 2.0871 0.5919 15.3742 10.1222 -4.3066 -15.3561 13.6111 5.0987 -6.3301 6.5505 4.3627 -0.0000 0.0000 0.0000 -81.8979 37.4348 28.6534 76.9545 -59.3471 -48.7270 -0.0000 0.0000 -24.5546 29.8041 8.4612 4.8176 -7.1250 0.0000 -0.0000 2.5582 39.6953 -0.3347 -0.0000 0.0000 0.0000 75.5182 -25.8615 50.6520 -125.1845 54.7622 -89.9348 0.0000 -0.0000 -23.0582 -28.2522 20.7178 -10.7636 7.1250 -0.0000 -0.0000 0.1966 -6.7425 0.1722
-6.2661 14.3685 -16.0519 -64.4421 -79.0860 -657.7050 0.0000 0.0000 0.0000 -34.2078 -11.4325 -8.1768 3.8750 11.9922 35.7044 1.5905 -3.0909 -23.0493 2.6802 10.1584 29.4913 0.0000 0.0000 0.0000 17.8891 6.7458 -15.9286 -16.7604 -19.7465 80.4896 0.6608 -17.8214 -18.1134 -2.7058 10.2029 -29.6362 0.9668 3.1965 12.0635 -2.4354 3.9833 6.4184 -3.5301 1.9287 0.2142 15.6010 10.3460 -4.1894 -15.3288 13.8637 4.5245 -6.3396 6.6930 4.2244 -0.0000 0.0000 0.0000 -80.4617 33.4716 30.9016 76.7286 -59.3239 -48.5327 -0.0000 0.0000 -23.6788 29.9024 8.8936 5.0807 -7.1250 0.0000 -0.0000 2.6302 40.1987 -0.3116 -0.0000 0.0000 0.0000 77.1807 -27.8899 49.1266 -119.7720 56.3704 -85.4691 0.0000 -0.0000 -23.0522 -29.7486 19.8596 -10.9874 7.1250 -0.0000 -0.0000 -0.8638 -7.3934 -0.7456
-6.6868 14.3022 -16.0810 -54.0647 -78.7814 -667.8090 0.0000 0.0000 0.0000 -35.2280 -11.3544 -6.4101 3.9543 12.0993 36.0842 1.6738 -4.5788 -23.4165 2.5666 9.9581 28.8411 0.0000 0.0000 0.0000 16.8936 10.3240 -20.2221 -17.5449 -19.8549 82.8051 0.4661 -16.6498 -18.4621 -2.8587 10.4627 -30.4885 0.3670 3.0569 12.5577 -2.8415 3.7146 6.4237 -3.6169 1.7796 -0.0757 15.7431 10.5258 -4.0624 -15.2810 14.0716 4.0589 -6.3348 6.8106 4.1028 -0.0000 0.0000 0.0000 -79.3490 29.8199 32.9462 78.5450 -59.4983 -50.0964 -0.0000 0.0000 -22.5462 29.6879 8.9718 5.0806 -7.1250 0.0000 -0.0000 2.4379 40.2683 -0.2846 -0.0000 0.0000 0.0000 78.6705 -29.8454 47.6463 -114.1187 57.6837 -80.7249 0.0000 -0.0000 -23.9208 -31.1532 18.8167 -11.0330 7.1250 -0.0000 -0.0000 -1.9005 -8.2783 -1.6080
-7.1298 14.2708 -16.0854 -44.5698 -77.8580 -677.0320 0.0000 0.0000 0.0000 -35.9997 -11.1714 -4.1060 3.9000 12.0261 35.8244 1.6959 -5.9671 -23.4219 2.4964 9.8314 28.4325 0.0000 0.0000 0.0000 15.9242 13.1891 -24.3069 -17.7910 -19.8826 83.5293 0.3153 -15.7479 -18.8134 -3.0277 10.7397 -31.4069 -0.1315 2.8372 12.7761 -3.0737 3.3606 6.4545 -3.5487 1.5929 -0.1992 15.8450 10.6824 -3.8573 -15.3097 14.2765 3.6994 -6.3516 6.9251 4.0031 0.0000 0.0000 0.0000 -78.6974 26.7266 34.6357 82.6353 -59.7941 -53.6264 -0.0000 0.0000 -21.4040 29.2566 8.6279 4.8036 -7.1250 0.0000 -0.0000 2.0712 39.8377 -0.2637 0.0000 0.0000 0.0000 79.7513 -31.7996 46.4873 -109.0694 58.5804 -76.4359 0.0000 -0.0000 -25.5309 -32.3013 17.8013 -10.9390 7.1250 -0.0000 -0.0000 -2.7787 -9.1989 -2.3015
-7.5914 14.2822 -16.0607 -37.9641 -76.3293 -683.3350 0.0000 0.0000 0.0000 -36.2440 -11.0508 -1.3638 3.7076 11.7608 34.8909 1.6344 -6.9166 -22.9177 2.4148 9.6813 27.9508 0.0000 0.0000 0.0000 15.3668 15.3688 -28.0137 -17.4433 -19.8425 82.5058 0.2387 -15.3693 -19.1406 -3.2281 11.0554 -32.4669 -0.3227 2.5521 12.7630 -3.0671 2.9741 6.4399 -3.3864 1.3991 -0.2421 15.9287 10.8256 -3.5765 -15.4312 14.4919 3.4598 -6.3964 7.0434 3.9352 0.0000 -0.0000 0.0000 -78.4906 24.2683 35.9850 88.7789 -59.9944 -58.9425 -0.0000 0.0000 -20.3124 28.5250 7.8061 4.2220 -7.1250 0.0000 -0.0000 1.4658 38.8444 -0.2223 0.0000 -0.0000 0.0000 80.3967 -33.8448 45.6947 -105.2802 59.0991 -73.1930 0.0000 -0.0000 -27.4369 -33.1824 17.0607 -10.8606 7.1250 -0.0000 -0.0000 -3.4524 -9.8718 -2.8146
-8.0735 14.3353 -16.0065 -33.2563 -74.4192 -687.7830 0.0000 0.0000 0.0000 -36.2114 -11.0416 1.8855 3.3987 11.3141 33.3466 1.4848 -7.2755 -21.8058 2.2762 9.4191 27.1155 0.0000 0.0000 0.0000 15.1337 16.7367 -30.9637 -16.5008 -19.7039 79.7202 0.1967 -15.3479 -19.6165 -3.4190 11.3443 -33.4501 -0.4147 2.2107 12.5795 -2.8702 2.5388 6.4208 -3.0673 1.1835 -0.2031 15.9771 10.9652 -3.2771 -15.6512 14.7239 3.3310 -6.4644 7.1664 3.9061 0.0000 -0.0000 0.0000 -78.6546 22.3685 37.1108 96.2537 -59.8517 -65.4132 -0.0000 0.0000 -19.2083 27.6854 6.6657 3.4852 -7.1250 0.0000 -0.0000 0.7897 37.4970 -0.1458 0.0000 -0.0000 0.0000 80.6933 -36.0052 45.1624 -102.9576 59.3560 -71.1973 0.0000 -0.0000 -29.1565 -33.8133 16.7571 -10.9297 7.1250 -0.0000 -0.0000 -3.9047 -10.0960 -3.1673
-8.5733 14.4178 -15.9247 -29.6237 -72.4262 -691.1740 0.0000 0.0000 0.0000 -36.1263 -11.0487 5.3322 3.0394 10.7585 31.4697 1.2610 -7.1360 -20.0667 2.0369 8.9425 25.6157 0.0000 0.0000 0.0000 15.0247 17.4850 -33.0377 -15.0460 -19.4011 75.3753 0.1561 -15.3933 -20.1608 -3.6779 11.7190 -34.7450 -0.5838 1.8805 12.2139 -2.5853 2.1177 6.4260 -2.6098 0.9731 -0.0415 15.9549 11.1111 -3.0664 -15.9358 14.9696 3.3044 -6.5339 7.2887 3.9255 -0.0000 0.0000 0.0000 -79.0572 20.8350 38.1522 104.1218 -59.2329 -72.1984 -0.0000 0.0000 -17.8832 26.7662 5.2138 2.6243 -7.1250 0.0000 -0.0000 0.0688 35.8151 -0.0155 -0.0000 0.0000 0.0000 80.8079 -38.1920 44.7092 -101.9221 59.4561 -70.3060 0.0000 -0.0000 -30.3847 -34.1467 16.7866 -11.0828 7.1250 -0.0000 -0.0000 -4.1163 -9.9939 -3.3483
